<?xml version="1.0" standalone="no"?>
<!DOCTYPE svg PUBLIC "-//W3C//DTD SVG 20010904//EN"
 "http://www.w3.org/TR/2001/REC-SVG-20010904/DTD/svg10.dtd">
<svg version="1.0" xmlns="http://www.w3.org/2000/svg"
 width="755.000000pt" height="756.000000pt" viewBox="0 0 755.000000 756.000000"
 preserveAspectRatio="xMidYMid meet">

<g transform="translate(0.000000,756.000000) scale(0.100000,-0.100000)"
fill="#000000" stroke="none">
<path d="M2239 7030 c-135 -23 -277 -76 -381 -143 -376 -240 -589 -696 -589
-1256 1 -455 147 -840 418 -1102 136 -131 285 -216 471 -267 l97 -27 1420 -5
1420 -5 47 -23 c74 -36 134 -105 183 -207 50 -104 72 -191 84 -319 28 -303
-80 -606 -247 -688 l-47 -23 -1750 -5 -1750 -5 -61 -28 c-292 -135 -296 -552
-6 -694 l57 -28 1795 0 c1693 0 1799 1 1869 18 462 112 783 494 884 1051 18
100 22 159 22 336 0 242 -16 350 -80 545 -149 455 -459 749 -864 820 -67 12
-204 15 -708 15 l-625 0 4 109 c1 60 -1 103 -5 95 -14 -25 -27 -16 -17 12 6
14 10 36 10 50 0 36 18 29 24 -8 2 -18 3 2 2 46 -2 47 -8 81 -15 85 -7 4 -35
7 -64 7 -45 -1 -52 -4 -53 -21 0 -11 4 -29 9 -40 9 -18 8 -18 -6 -7 -15 13
-16 9 -11 -40 7 -66 22 -118 35 -118 6 0 9 -34 7 -82 l-3 -83 -735 0 -735 0
-47 23 c-103 51 -196 193 -240 367 -19 77 -23 115 -22 265 0 148 4 187 22 255
46 166 131 297 227 348 l40 22 1685 5 c1867 6 1713 0 1814 69 238 164 202 535
-62 659 l-57 27 -1710 1 c-940 1 -1731 -2 -1756 -6z m1621 -1666 c0 -2 -16 -4
-35 -4 -19 0 -35 4 -35 8 0 4 16 6 35 4 19 -2 35 -6 35 -8z m-46 -154 c5 -34
4 -42 -5 -33 -6 6 -13 33 -16 60 -5 60 11 39 21 -27z m73 -177 c-2 -27 -3 -5
-3 47 0 52 1 74 3 48 2 -27 2 -69 0 -95z"/>
<path d="M3789 6203 c0 -5 -2 -16 -4 -26 -2 -12 1 -17 10 -13 11 4 13 -35 13
-209 0 -190 -2 -213 -16 -208 -10 4 -13 2 -8 -5 4 -7 1 -12 -10 -12 -14 0 -16
-7 -10 -46 3 -26 6 -53 6 -60 0 -7 8 -15 18 -17 16 -4 16 -5 0 -6 -12 -1 -18
-9 -18 -25 0 -15 7 -26 18 -29 9 -3 -7 -5 -35 -6 -64 -1 -69 -17 -22 -73 38
-47 95 -65 150 -49 45 14 99 72 100 109 7 135 5 545 -2 574 -15 60 -31 58 -28
-3 1 -30 5 -58 8 -64 3 -5 6 -37 7 -70 1 -48 0 -53 -6 -25 l-7 35 -2 -43 c-1
-30 2 -41 11 -36 7 5 8 3 2 -7 -11 -18 -13 -60 -2 -53 4 3 8 -13 8 -36 0 -23
-4 -39 -8 -36 -5 3 -9 -1 -9 -9 0 -8 5 -12 11 -9 6 3 4 -1 -6 -8 -9 -8 -19
-37 -23 -70 -6 -50 -5 -57 11 -61 17 -4 17 -5 2 -6 -12 -1 -18 -9 -18 -25 0
-15 7 -26 18 -29 9 -3 -5 -5 -33 -5 -36 0 -43 2 -25 7 16 4 25 14 25 26 0 12
-9 21 -25 26 l-25 6 25 4 c22 3 26 11 34 57 10 57 8 62 -22 65 -12 0 -18 6
-14 12 13 21 9 32 -9 28 -18 -5 -19 3 -19 201 0 177 2 205 14 194 8 -7 10 -14
5 -16 -14 -6 -11 -112 4 -112 9 0 8 -3 -2 -9 -11 -7 -9 -10 9 -16 18 -6 20 -9
9 -16 -12 -7 -11 -9 1 -9 13 0 13 -1 0 -10 -10 -6 -11 -10 -2 -10 7 0 12 -15
12 -40 0 -22 -5 -40 -11 -40 -5 0 -7 5 -3 12 4 6 3 8 -4 4 -7 -4 -12 10 -15
41 l-3 48 -2 -52 c-1 -37 2 -53 11 -53 9 0 8 -3 -2 -9 -11 -7 -9 -10 9 -16 18
-6 20 -9 9 -16 -12 -7 -11 -9 1 -9 10 0 11 -3 4 -8 -9 -5 -9 -10 0 -18 9 -8
12 30 12 155 0 91 -2 145 -4 119 -2 -27 -7 -48 -12 -48 -5 0 -7 9 -5 20 2 11
0 18 -6 15 -5 -4 -9 6 -9 20 0 14 4 24 8 21 4 -2 8 15 8 39 0 24 -4 41 -8 39
-4 -3 -8 0 -8 5 0 12 -90 15 -91 4z m101 -447 c0 -2 -7 -6 -15 -10 -8 -3 -15
-1 -15 4 0 6 7 10 15 10 8 0 15 -2 15 -4z"/>
<path d="M3911 6174 c0 -11 3 -14 6 -6 3 7 2 16 -1 19 -3 4 -6 -2 -5 -13z"/>
<path d="M3750 6170 c-13 -9 -13 -10 0 -10 12 0 12 -2 2 -9 -11 -7 -11 -9 0
-14 10 -3 14 3 14 19 0 13 0 24 0 24 -1 0 -8 -5 -16 -10z"/>
<path d="M3711 6126 c-14 -17 -21 -135 -8 -143 6 -4 7 -1 2 7 -6 10 -4 12 9 7
10 -4 21 -7 24 -7 4 0 0 -5 -8 -10 -10 -6 -11 -10 -2 -10 7 0 12 -13 12 -30 0
-16 -4 -30 -9 -30 -4 0 -7 12 -5 28 2 17 1 19 -3 7 -3 -11 -10 -23 -17 -27 -7
-5 -6 -8 4 -8 13 0 13 -1 0 -10 -13 -9 -13 -10 0 -10 13 0 13 -1 0 -10 -13 -9
-13 -10 0 -10 12 0 12 -2 2 -8 -9 -6 -5 -12 13 -20 20 -9 25 -9 19 0 -5 8 -2
9 10 5 11 -4 15 -3 10 4 -4 8 1 9 17 4 19 -5 21 -4 9 4 -13 10 -13 11 0 11 13
0 13 1 0 10 -13 9 -13 10 0 10 13 0 13 1 0 10 -12 8 -12 10 -1 10 8 0 12 3 8
6 -3 3 -14 1 -24 -5 -14 -8 -14 -10 -3 -11 13 0 13 -1 0 -10 -22 -14 -29 -12
-25 8 2 9 4 21 4 25 1 5 7 5 14 1 9 -6 9 -5 0 7 -14 17 -25 69 -15 69 4 0 14
-5 22 -10 13 -9 13 -10 0 -10 -12 -1 -12 -3 2 -11 10 -5 15 -16 12 -24 -4 -8
-2 -15 3 -15 5 0 9 9 10 20 1 11 -4 20 -10 20 -7 0 -6 4 3 10 13 9 13 10 0 10
-13 0 -13 1 0 10 13 9 13 10 0 10 -13 0 -13 1 0 10 13 9 13 10 0 10 -13 0 -13
2 0 11 13 9 12 10 -2 5 -10 -3 -25 -9 -35 -13 -11 -4 -14 -3 -9 5 5 8 2 10 -9
5 -13 -5 -14 -7 -3 -14 10 -7 10 -9 -2 -9 -13 0 -13 -1 0 -11 13 -9 13 -10 0
-6 -10 2 -16 20 -18 51 -2 27 0 46 5 43 5 -3 9 5 9 19 0 28 0 28 -15 10z m59
-106 c-12 -8 -12 -10 -1 -10 8 0 12 -2 9 -5 -3 -3 -13 -2 -22 1 -14 5 -15 9
-4 15 7 5 18 9 23 9 6 0 3 -5 -5 -10z m-15 -157 c-15 -8 -29 -12 -33 -9 -3 3
1 6 9 6 11 0 11 2 1 8 -8 6 -1 9 19 9 l31 0 -27 -14z"/>
<path d="M3742 6085 c0 -16 2 -22 5 -12 2 9 2 23 0 30 -3 6 -5 -1 -5 -18z"/>
<path d="M3932 5995 c0 -16 2 -22 5 -12 2 9 2 23 0 30 -3 6 -5 -1 -5 -18z"/>
<path d="M3702 5950 c0 -14 2 -19 5 -12 2 6 2 18 0 25 -3 6 -5 1 -5 -13z"/>
<path d="M3892 5940 c0 -14 2 -19 5 -12 2 6 2 18 0 25 -3 6 -5 1 -5 -13z"/>
<path d="M3932 5940 c0 -14 2 -19 5 -12 2 6 2 18 0 25 -3 6 -5 1 -5 -13z"/>
<path d="M3932 5820 c0 -19 2 -27 5 -17 2 9 2 25 0 35 -3 9 -5 1 -5 -18z"/>
<path d="M3712 5795 c-10 -12 -10 -15 0 -15 9 0 9 -3 -2 -10 -11 -7 -12 -10
-2 -10 10 0 9 -5 -3 -17 -13 -13 -16 -27 -11 -61 3 -25 6 -51 6 -58 0 -8 11
-14 26 -14 26 0 26 0 19 58 -8 65 -12 75 -27 66 -7 -4 -8 -2 -4 5 4 6 16 9 26
6 10 -3 21 -1 25 4 4 7 -1 8 -11 4 -12 -4 -15 -3 -10 5 5 8 2 10 -8 6 -12 -4
-14 0 -10 20 5 30 4 31 -14 11z"/>
<path d="M3740 5786 c0 -2 7 -7 16 -10 8 -3 12 -2 9 4 -6 10 -25 14 -25 6z"/>
<path d="M3640 5690 c0 -11 5 -20 10 -20 6 0 10 -32 10 -75 0 -43 4 -75 10
-75 6 0 10 30 10 69 0 39 -4 73 -10 76 -5 3 -10 15 -10 26 0 10 -4 19 -10 19
-5 0 -10 -9 -10 -20z"/>
<path d="M4016 5668 c-11 -84 -13 -148 -4 -148 4 0 8 34 8 75 0 43 4 75 10 75
6 0 10 9 10 20 0 38 -19 20 -24 -22z"/>
<path d="M3700 5575 c0 -20 5 -25 25 -25 20 0 25 5 25 25 0 20 -5 25 -25 25
-20 0 -25 -5 -25 -25z"/>
<path d="M4960 1710 l0 -350 70 0 70 0 0 350 0 350 -70 0 -70 0 0 -350z"/>
<path d="M4230 1890 l0 -161 -31 23 c-25 19 -43 23 -104 23 -65 0 -78 -3 -116
-30 -120 -85 -121 -275 -1 -359 59 -42 139 -47 205 -13 44 23 47 23 47 6 0
-17 8 -19 70 -19 l70 0 0 345 0 345 -70 0 -70 0 0 -160z m-55 -244 c80 -34 74
-138 -10 -166 -30 -10 -41 -9 -72 7 -68 33 -67 129 1 159 39 17 40 17 81 0z"/>
<path d="M865 2021 c-47 -22 -99 -74 -114 -114 -27 -72 0 -164 61 -209 17 -12
66 -41 107 -63 41 -22 79 -47 84 -56 15 -24 0 -64 -28 -77 -43 -20 -80 -14
-151 23 -37 19 -68 35 -69 35 -10 0 -74 -124 -67 -129 81 -55 158 -81 242 -81
153 0 247 79 249 208 2 79 -52 142 -169 195 -92 43 -120 64 -120 92 0 53 80
71 159 35 24 -11 45 -20 47 -20 2 0 17 27 34 59 34 69 34 69 -57 100 -77 26
-155 27 -208 2z"/>
<path d="M1266 2005 c-36 -33 -36 -83 0 -119 36 -36 86 -36 119 0 75 81 -38
194 -119 119z"/>
<path d="M3487 2023 c-4 -6 -156 -382 -264 -650 -4 -10 16 -13 80 -13 l85 0
23 65 23 65 126 0 126 0 23 -65 23 -65 84 0 c46 0 84 1 84 3 0 1 -60 151 -133
332 l-134 330 -70 3 c-39 2 -73 -1 -76 -5z m108 -300 c16 -43 30 -84 33 -90 3
-10 -15 -13 -68 -13 -53 0 -71 3 -68 13 47 131 62 167 68 167 4 0 20 -35 35
-77z"/>
<path d="M6300 1850 l0 -80 -30 0 c-30 0 -30 -1 -30 -55 0 -54 0 -55 30 -55
l30 0 0 -100 c0 -118 14 -160 62 -190 27 -17 44 -20 94 -17 91 7 95 11 75 77
-15 50 -19 55 -43 52 -37 -4 -48 21 -48 107 l0 71 45 0 45 0 0 55 0 55 -45 0
-45 0 0 80 0 80 -70 0 -70 0 0 -80z"/>
<path d="M1250 1570 l0 -210 75 0 75 0 -2 208 -3 207 -72 3 -73 3 0 -211z"/>
<path d="M1579 1757 c-24 -13 -57 -43 -74 -66 -28 -39 -30 -50 -30 -126 0 -76
2 -87 30 -126 17 -23 50 -53 75 -67 39 -20 55 -23 117 -19 40 2 79 10 88 17
21 18 28 7 20 -29 -15 -70 -123 -98 -182 -47 l-27 24 -56 -27 c-30 -14 -57
-27 -59 -28 -12 -7 45 -73 81 -93 38 -22 55 -25 144 -25 94 0 104 2 150 30 34
21 56 44 72 75 21 42 22 55 22 282 l0 238 -70 0 c-56 0 -70 -3 -70 -15 0 -19
2 -19 -45 5 -54 28 -130 26 -186 -3z m176 -111 c59 -25 75 -97 31 -141 -35
-35 -69 -40 -113 -18 -68 33 -68 129 1 159 39 17 40 17 81 0z"/>
<path d="M2669 1752 c-112 -58 -149 -173 -92 -282 39 -74 100 -113 188 -118
35 -2 80 1 102 8 44 15 98 52 113 80 9 17 4 23 -40 45 l-51 26 -26 -21 c-38
-30 -106 -27 -138 5 -14 13 -25 31 -25 40 0 13 22 15 151 15 l152 0 -6 52
c-18 148 -185 225 -328 150z m163 -79 c5 -2 13 -13 18 -24 10 -18 7 -19 -71
-19 l-81 0 14 22 c22 33 82 43 120 21z"/>
<path d="M4559 1752 c-112 -58 -149 -173 -92 -282 39 -74 100 -113 188 -118
35 -2 80 1 102 8 44 15 98 52 113 80 9 17 4 23 -40 45 l-51 26 -26 -21 c-38
-30 -106 -27 -138 5 -14 13 -25 31 -25 40 0 13 22 15 151 15 l152 0 -6 52
c-18 148 -185 225 -328 150z m145 -72 c14 -5 30 -18 36 -30 10 -19 8 -20 -70
-20 -78 0 -80 1 -70 21 18 33 61 46 104 29z"/>
<path d="M5280 1758 c-25 -14 -58 -44 -75 -67 -25 -36 -30 -54 -33 -114 -3
-61 0 -79 21 -117 53 -100 173 -138 270 -86 45 24 47 25 47 6 0 -18 7 -20 70
-20 l70 0 0 205 0 205 -70 0 c-64 0 -70 -2 -70 -20 0 -20 -1 -20 -30 2 -47 34
-141 37 -200 6z m160 -63 c58 -30 87 -102 69 -169 -21 -75 -103 -120 -178 -97
-120 35 -142 198 -36 262 36 23 105 25 145 4z"/>
<path d="M5290 1565 c0 -52 4 -95 9 -95 16 0 170 94 165 101 -7 13 -145 89
-160 89 -11 0 -14 -20 -14 -95z"/>
<path d="M5960 1773 c-8 -3 -27 -15 -42 -25 -28 -19 -28 -19 -28 1 0 19 -6 21
-70 21 l-70 0 0 -205 0 -205 70 0 70 0 0 124 c0 117 2 127 24 152 18 21 32 28
60 28 63 0 71 -16 74 -169 l4 -135 69 0 69 0 0 158 c0 182 -8 205 -82 241 -42
20 -113 27 -148 14z"/>
<path d="M6689 1752 c-112 -58 -149 -173 -92 -282 39 -74 100 -113 188 -118
35 -2 80 1 102 8 44 15 98 52 113 80 9 17 4 23 -40 45 l-51 26 -26 -21 c-38
-30 -106 -27 -138 5 -14 13 -25 31 -25 40 0 13 22 15 151 15 l152 0 -6 52
c-18 148 -185 225 -328 150z m145 -72 c14 -5 30 -18 36 -30 10 -19 8 -20 -70
-20 -78 0 -80 1 -70 21 18 33 61 46 104 29z"/>
<path d="M2040 1628 c0 -168 13 -210 76 -249 35 -22 50 -24 149 -24 99 0 114
2 149 24 63 39 76 81 76 249 l0 142 -70 0 -70 0 0 -102 c0 -157 -18 -198 -85
-198 -67 0 -85 41 -85 198 l0 102 -70 0 -70 0 0 -142z"/>
<path d="M1960 1200 c-11 -11 -20 -27 -20 -35 0 -23 36 -50 85 -63 49 -13 65
-33 45 -57 -14 -17 -82 -20 -111 -5 -12 7 -19 7 -19 1 0 -34 109 -42 140 -11
38 38 18 71 -53 91 -53 15 -70 34 -56 62 10 17 18 19 68 14 50 -5 54 -4 37 9
-29 21 -92 18 -116 -6z"/>
<path d="M2150 1213 c-5 -70 -3 -187 2 -196 10 -16 10 -18 12 101 1 56 -2 102
-6 102 -5 0 -8 -3 -8 -7z"/>
<path d="M2237 1202 c-21 -23 -22 -56 -2 -72 8 -6 33 -18 57 -24 46 -14 65
-34 55 -60 -7 -18 -81 -23 -107 -7 -8 6 -18 7 -23 4 -17 -10 37 -32 79 -33 45
0 74 22 74 57 0 27 -18 41 -70 56 -52 15 -70 38 -50 62 11 13 25 16 62 13 40
-4 46 -3 37 8 -17 21 -93 18 -112 -4z"/>
<path d="M2380 1210 c0 -5 18 -10 40 -10 l40 0 -3 -95 c-2 -71 1 -95 10 -95
10 0 13 25 13 95 l0 95 35 0 c19 0 35 5 35 10 0 6 -35 10 -85 10 -50 0 -85 -4
-85 -10z"/>
<path d="M2589 1193 c-1 -16 -2 -63 -3 -105 l-1 -78 78 0 c50 0 76 4 72 10 -3
6 -34 10 -69 10 -61 0 -62 0 -60 28 1 15 2 30 3 35 0 4 26 7 56 7 30 0 55 5
55 10 0 6 -26 10 -57 10 l-58 0 -3 40 -2 40 65 0 c37 0 65 4 65 10 0 6 -30 10
-70 10 -69 0 -70 0 -71 -27z"/>
<path d="M2790 1115 c0 -125 18 -143 22 -22 l3 82 38 -67 c21 -38 42 -68 47
-68 4 0 25 30 47 66 l38 66 3 -81 c4 -119 22 -100 22 24 0 58 -4 105 -9 105
-5 0 -28 -34 -52 -75 -23 -41 -45 -75 -49 -75 -3 0 -25 34 -49 75 -23 41 -47
75 -52 75 -5 0 -9 -47 -9 -105z"/>
<path d="M3097 1123 c-26 -54 -47 -101 -47 -105 0 -17 18 -6 28 17 11 23 17
25 75 25 58 0 65 -2 75 -25 6 -14 16 -25 21 -25 6 0 -6 34 -24 75 -49 106 -64
135 -74 135 -4 0 -29 -44 -54 -97z m99 -40 c-2 -2 -24 -3 -49 -1 l-45 3 25 55
25 55 25 -54 c13 -29 22 -56 19 -58z"/>
<path d="M3375 1115 c0 -71 4 -105 11 -105 7 0 10 13 9 29 -2 27 0 29 37 33
36 3 43 0 65 -29 28 -37 55 -46 29 -10 -28 37 -28 45 -7 66 28 28 27 75 -1
101 -17 15 -35 20 -82 20 l-61 0 0 -105z m135 66 c27 -52 2 -85 -68 -85 l-47
-1 -3 53 -2 52 54 0 c44 0 57 -4 66 -19z"/>
<path d="M3652 1208 c-7 -7 -12 -15 -12 -20 0 -4 -15 -38 -33 -75 -18 -38 -36
-76 -40 -85 -10 -28 12 -21 25 7 10 23 17 25 75 25 58 0 64 -2 75 -25 10 -22
28 -35 28 -20 0 12 -94 205 -99 205 -4 0 -12 -5 -19 -12z m47 -80 l20 -48 -49
0 c-28 0 -50 4 -50 10 0 20 44 100 51 93 4 -5 17 -29 28 -55z"/>
<path d="M3809 1213 c0 -5 -1 -52 -2 -105 l-2 -98 66 0 c77 0 111 19 129 74
13 41 -5 94 -41 120 -24 16 -148 24 -150 9z m148 -35 c28 -31 35 -60 23 -93
-16 -42 -39 -54 -102 -55 l-58 0 0 78 c0 43 3 82 7 85 3 4 30 7 58 7 41 0 56
-5 72 -22z"/>
<path d="M4060 1115 c0 -63 4 -105 10 -105 6 0 10 42 10 105 0 63 -4 105 -10
105 -6 0 -10 -42 -10 -105z"/>
<path d="M4172 1136 c-22 -46 -43 -93 -47 -105 -9 -29 9 -26 23 4 11 23 17 25
75 25 58 0 65 -2 75 -25 6 -14 16 -25 22 -25 11 0 5 14 -52 133 -21 42 -42 77
-47 77 -4 0 -27 -38 -49 -84z m94 -53 c-2 -2 -25 -3 -50 -1 l-46 3 26 55 27
55 24 -54 c13 -29 22 -56 19 -58z"/>
<path d="M4360 1115 l0 -105 70 0 c40 0 70 4 70 10 0 6 -27 10 -60 10 l-60 0
0 95 c0 57 -4 95 -10 95 -6 0 -10 -42 -10 -105z"/>
<path d="M4634 1186 c-48 -48 -47 -95 1 -143 33 -33 39 -35 86 -31 59 6 87 29
99 81 16 71 -34 127 -113 127 -31 0 -46 -7 -73 -34z m141 -9 c38 -32 38 -92 0
-124 -60 -52 -155 -15 -155 62 0 77 95 114 155 62z"/>
<path d="M4877 1213 c-8 -18 -1 -197 9 -200 7 -2 10 24 9 77 0 44 2 80 6 80 4
0 36 -36 71 -80 35 -44 66 -80 71 -80 4 0 7 47 7 105 0 63 -4 105 -10 105 -6
0 -10 -35 -10 -86 l0 -87 -67 86 c-66 84 -78 95 -86 80z"/>
<path d="M5120 1115 l0 -105 70 0 c40 0 70 4 70 10 0 6 -27 10 -60 10 l-60 0
0 95 c0 57 -4 95 -10 95 -6 0 -10 -42 -10 -105z"/>
<path d="M5300 1115 c0 -63 4 -105 10 -105 6 0 10 42 10 105 0 63 -4 105 -10
105 -6 0 -10 -42 -10 -105z"/>
<path d="M5390 1115 c0 -126 18 -143 22 -20 l3 84 68 -84 c37 -47 72 -85 77
-85 6 0 10 43 10 105 0 127 -18 142 -22 18 l-3 -87 -68 87 c-37 48 -72 87 -78
87 -5 0 -9 -46 -9 -105z"/>
<path d="M5635 1115 l0 -105 78 0 c50 0 76 4 72 10 -3 6 -35 10 -71 10 -56 0
-64 2 -64 19 0 43 10 51 66 51 30 0 54 5 54 10 0 6 -26 10 -59 10 l-58 0 1 38
1 37 63 3 c86 4 78 22 -10 22 l-73 0 0 -105z"/>
</g>
</svg>
