<?xml version="1.0" standalone="no"?>
<!DOCTYPE svg PUBLIC "-//W3C//DTD SVG 20010904//EN"
 "http://www.w3.org/TR/2001/REC-SVG-20010904/DTD/svg10.dtd">
<svg version="1.0" xmlns="http://www.w3.org/2000/svg"
 width="2555.000000pt" height="2560.000000pt" viewBox="0 0 2555.000000 2560.000000"
 preserveAspectRatio="xMidYMid meet">

<g transform="translate(0.000000,2560.000000) scale(0.100000,-0.100000)"
fill="#000000" stroke="none">
<path d="M5905 24253 c-114 -6 -381 -34 -502 -54 -1373 -217 -2529 -1010
-3326 -2279 -582 -928 -958 -2107 -1067 -3350 -32 -364 -41 -970 -20 -1310
143 -2288 1089 -4192 2581 -5197 573 -385 1204 -634 1884 -743 369 -58 -236
-53 7130 -60 6376 -5 6736 -7 6839 -23 457 -75 804 -255 1133 -588 404 -409
704 -991 882 -1710 118 -476 165 -871 165 -1394 0 -328 -10 -496 -50 -793
-135 -1012 -533 -1870 -1086 -2338 -274 -233 -567 -366 -948 -431 -100 -17
-507 -18 -8585 -23 l-8480 -5 -115 -32 c-268 -74 -447 -177 -635 -367 -161
-163 -267 -335 -333 -542 -46 -144 -62 -230 -69 -384 -19 -416 122 -787 406
-1071 209 -209 457 -336 746 -383 92 -15 780 -16 8635 -13 7990 3 8543 4 8665
20 197 26 357 53 511 87 1160 253 2154 929 2887 1963 965 1359 1424 3280 1246
5212 -211 2303 -1262 4162 -2854 5050 -526 294 -1147 487 -1745 545 -63 6
-131 14 -150 17 -19 3 -3106 9 -6860 12 l-6825 7 -120 26 c-207 46 -320 85
-477 163 -690 346 -1221 1187 -1457 2310 -93 444 -127 822 -118 1340 6 352 18
512 62 800 150 987 539 1813 1070 2272 275 238 553 370 925 440 91 17 481 18
8250 23 l8155 6 90 21 c199 47 348 110 497 209 515 342 739 991 552 1594 -92
294 -257 526 -504 709 -150 112 -367 206 -570 248 -81 16 -500 17 -8220 18
-4474 1 -8162 0 -8195 -2z"/>
<path d="M13225 20589 c-79 -5 -225 -44 -225 -60 0 -13 37 -29 54 -23 10 4 14
0 13 -13 -1 -14 -7 -18 -22 -15 -25 4 -50 -21 -41 -43 3 -9 18 -15 36 -15 21
0 29 -4 24 -12 -5 -7 -1 -9 13 -6 13 4 27 -2 38 -14 9 -12 24 -18 35 -15 12 3
20 -2 23 -13 3 -13 0 -16 -14 -13 -24 7 -49 -13 -49 -38 0 -13 9 -21 29 -25
17 -4 31 -14 34 -25 4 -15 2 -17 -13 -9 -25 13 -59 -24 -43 -48 6 -9 20 -17
31 -16 13 0 20 -5 19 -17 -1 -9 -7 -15 -14 -12 -18 7 -43 -15 -43 -37 0 -9 9
-25 20 -35 l20 -18 -20 -14 c-11 -8 -20 -22 -20 -32 0 -10 9 -26 20 -36 l20
-18 -20 -14 c-24 -17 -26 -51 -5 -59 8 -4 15 -12 15 -19 0 -7 -7 -18 -15 -25
-20 -16 -19 -39 2 -62 15 -17 15 -19 0 -36 -23 -25 -21 -55 3 -77 l20 -18 -20
-14 c-23 -17 -27 -61 -5 -69 8 -4 15 -12 15 -19 0 -7 -7 -15 -15 -19 -21 -7
-19 -56 2 -71 17 -13 17 -14 0 -32 -21 -24 -22 -62 -2 -69 19 -8 19 -28 0 -44
-22 -19 -15 -52 15 -67 14 -7 19 -13 12 -13 -7 0 -10 -4 -7 -10 3 -5 -1 -10
-9 -10 -21 0 -32 -46 -16 -65 7 -8 19 -15 28 -15 9 0 5 -7 -12 -21 -34 -27
-33 -70 3 -79 l23 -5 -27 -27 c-31 -32 -30 -58 5 -75 22 -11 23 -13 5 -14 -12
0 -15 -3 -7 -6 10 -4 8 -9 -7 -20 -40 -28 -11 -82 36 -67 17 5 16 5 -1 -6 -40
-26 -56 -45 -56 -67 0 -25 35 -49 54 -36 6 4 -3 -5 -21 -20 -18 -16 -33 -37
-33 -47 0 -24 26 -43 50 -37 11 3 18 1 14 -4 -3 -5 -14 -9 -25 -9 -11 0 -18
-4 -15 -9 3 -5 -1 -14 -9 -21 -34 -28 -1 -78 42 -64 10 3 7 -2 -7 -10 -14 -8
-20 -16 -15 -16 6 -1 0 -5 -13 -11 -18 -7 -23 -15 -20 -36 3 -24 7 -28 36 -28
l33 0 -36 -30 c-19 -17 -35 -38 -35 -47 0 -23 27 -41 52 -35 18 5 15 -1 -14
-24 -21 -17 -38 -37 -38 -44 0 -8 -21 -15 -57 -19 -32 -4 -83 -10 -113 -14
l-55 -7 -3 -137 -3 -138 -39 0 -40 0 0 134 0 135 -42 9 c-24 6 -33 10 -21 11
28 1 38 18 23 36 -18 22 -50 18 -59 -7 -7 -19 -14 -22 -57 -19 -36 2 -53 8
-66 24 l-18 22 0 -27 c0 -15 -4 -30 -10 -33 -5 -3 -10 -29 -10 -56 0 -56 -19
-84 -50 -76 -15 4 -20 0 -20 -17 0 -19 4 -21 35 -18 l35 4 0 -65 c0 -36 5 -69
10 -72 6 -4 10 -65 10 -151 l0 -144 140 0 c166 0 153 -14 148 163 l-3 117 38
0 37 0 0 -140 0 -140 113 -1 c61 -1 101 -4 87 -8 -16 -4 -25 -14 -25 -26 0
-23 -31 -32 -117 -34 l-58 -1 0 -115 0 -115 123 -2 c67 -1 105 -3 85 -5 -25
-3 -35 -8 -32 -17 3 -7 -2 -19 -11 -26 -21 -17 -329 -26 -435 -12 -41 5 -78 8
-81 6 -10 -6 28 -146 56 -209 30 -68 76 -136 134 -199 215 -229 570 -292 850
-152 199 101 327 259 385 476 23 86 25 105 26 412 0 199 4 324 10 326 6 2 10
33 10 69 l0 65 35 -4 c31 -3 35 -1 35 18 0 17 -4 21 -20 17 -34 -9 -50 14 -50
72 0 36 -5 57 -16 66 -14 12 -15 99 -12 903 2 752 1 899 -11 944 -8 28 -18 52
-23 52 -4 0 -8 6 -8 14 0 8 -7 22 -16 30 -8 9 -13 16 -9 16 3 0 -6 23 -21 50
-15 28 -31 50 -36 50 -4 0 -8 7 -8 15 0 16 -43 31 -59 20 -18 -10 -12 -43 9
-58 11 -8 17 -17 13 -20 -3 -4 1 -7 10 -7 16 0 43 -37 34 -47 -3 -2 -8 5 -12
17 -5 16 -13 20 -33 18 -40 -5 -38 -31 5 -73 27 -26 31 -33 14 -25 -19 10 -26
9 -38 -3 -18 -18 -9 -54 15 -61 9 -3 23 -15 30 -26 12 -19 11 -20 -8 -8 -16
11 -23 10 -37 -5 -14 -13 -15 -21 -7 -35 14 -22 44 -28 55 -10 6 8 9 -1 9 -26
0 -31 -3 -37 -12 -28 -19 19 -46 14 -53 -8 -14 -44 47 -70 61 -27 7 18 9 13
17 -28 5 -27 10 -70 11 -95 1 -25 6 -53 10 -63 6 -11 4 -28 -5 -44 -12 -21
-11 -29 4 -55 16 -28 16 -32 2 -48 -19 -21 -19 -44 0 -64 13 -13 13 -18 -2
-45 -17 -29 -17 -31 5 -60 12 -17 18 -31 13 -31 -16 0 -33 -39 -26 -61 10 -32
48 -21 56 16 5 25 7 27 14 12 8 -20 -19 -57 -42 -57 -8 0 -12 -4 -9 -9 3 -5
-1 -14 -9 -21 -30 -25 -11 -77 24 -65 14 4 21 15 21 33 0 19 3 23 11 15 15
-15 -14 -63 -37 -63 -8 0 -13 -4 -10 -9 3 -5 -1 -14 -9 -21 -18 -15 -19 -42
-3 -58 16 -16 48 4 48 30 0 16 3 19 11 11 13 -13 -5 -53 -24 -53 -20 0 -49
-57 -42 -81 9 -28 49 -22 53 9 2 12 7 20 12 17 14 -9 -1 -44 -22 -51 -11 -3
-17 -8 -15 -11 3 -2 -3 -13 -14 -24 -22 -22 -24 -42 -5 -58 26 -22 54 4 46 44
-1 6 4 5 11 -2 15 -15 -13 -63 -39 -64 -11 0 -13 -2 -4 -6 10 -4 8 -9 -7 -20
-25 -17 -27 -45 -6 -63 19 -16 45 3 45 33 0 16 3 18 11 10 15 -15 -14 -63 -38
-63 -9 0 -14 -3 -10 -6 3 -4 -1 -13 -9 -21 -23 -24 -14 -58 16 -58 17 0 26 7
30 25 4 16 8 21 13 13 15 -24 -15 -59 -46 -54 -4 0 -6 -2 -5 -6 1 -5 -5 -21
-12 -36 -12 -24 -11 -30 1 -43 19 -19 49 -8 49 18 0 10 5 16 10 13 15 -9 -7
-44 -33 -55 -12 -5 -18 -9 -13 -9 5 -1 1 -10 -8 -20 -24 -27 -17 -56 14 -56
17 0 26 7 30 25 4 17 8 21 14 12 10 -17 -19 -62 -42 -63 -11 0 -13 -2 -4 -6
10 -4 8 -9 -8 -20 -30 -21 -23 -58 10 -58 18 0 26 6 28 23 2 12 8 20 13 17 16
-11 10 -25 -28 -64 -21 -22 -44 -46 -51 -55 -7 -9 -25 -18 -40 -22 -15 -3 -33
-7 -39 -10 -10 -2 -13 -39 -13 -139 l0 -135 -45 0 -44 0 -3 138 -3 137 -70 6
c-38 3 -62 6 -53 7 24 3 32 20 18 37 -18 22 -51 18 -57 -5 -5 -18 -14 -20 -75
-20 -40 0 -67 4 -63 9 3 5 1 12 -4 16 -7 4 -7 15 -1 31 14 35 13 36 -13 19
-20 -13 -26 -13 -42 -1 -19 13 -18 14 6 9 46 -9 51 9 47 190 0 21 -3 26 -11
18 -15 -15 -30 -14 -53 5 -18 14 -18 15 4 4 15 -7 28 -8 41 0 24 12 28 23 23
66 -4 30 -6 33 -32 28 -15 -4 -30 -2 -33 4 -4 5 4 7 17 5 32 -6 53 25 48 71
-4 32 -6 35 -26 25 -21 -10 -21 -10 1 8 17 14 22 29 22 67 -1 36 -4 45 -12 37
-14 -14 -47 -14 -47 0 0 5 4 7 10 4 5 -3 19 -1 30 5 16 9 20 21 20 62 0 41 -3
49 -12 40 -7 -7 -19 -12 -28 -12 -9 0 -5 5 10 13 21 11 25 20 25 58 1 43 0 45
-25 42 l-25 -3 25 8 c24 8 25 10 28 116 2 102 1 108 -15 95 -17 -13 -17 -12
-1 6 20 25 20 27 17 370 -1 120 -6 215 -12 223 -5 7 -6 12 0 12 5 0 10 30 11
68 2 37 4 78 5 92 2 14 0 37 -4 52 -4 15 -3 30 2 33 5 3 1 18 -9 33 -9 14 -11
23 -4 19 6 -5 12 -4 12 2 0 6 -7 11 -17 11 -14 0 -14 2 3 21 15 16 16 23 6 37
-23 33 -24 43 -6 63 23 26 8 54 -29 54 -14 -1 -23 3 -21 7 3 4 11 8 18 8 19 0
49 37 43 52 -3 10 8 12 48 10 42 -3 53 0 59 13 9 26 -13 47 -43 42 -25 -5 -25
-4 -6 9 57 38 60 42 49 61 -6 10 -22 18 -35 19 -14 0 -31 4 -39 9 -23 14 -115
21 -205 14z m-55 -63 c0 -2 -13 -6 -29 -8 -17 -2 -28 -1 -25 4 5 8 54 12 54 4z
m203 -3 c-7 -2 -19 -2 -25 0 -7 3 -2 5 12 5 14 0 19 -2 13 -5z m-100 -40 c3
-5 -8 -8 -25 -9 -20 -1 -25 2 -16 7 16 11 35 11 41 2z m-123 -38 c0 -2 -10 -9
-22 -15 -22 -11 -22 -10 -4 4 21 17 26 19 26 11z m107 -241 c-3 -3 -12 -4 -19
-1 -8 3 -5 6 6 6 11 1 17 -2 13 -5z m713 -163 c7 -13 7 -22 0 -26 -5 -3 -10 3
-10 14 0 10 -6 22 -12 24 -10 4 -10 6 -1 6 7 1 17 -8 23 -18z m-3 -233 c-3 -7
-5 -2 -5 12 0 14 2 19 5 13 2 -7 2 -19 0 -25z m3 -78 c6 -11 7 -20 2 -20 -6 0
-12 9 -15 20 -3 11 -3 20 -1 20 2 0 8 -9 14 -20z m-3 -132 c-3 -7 -5 -2 -5 12
0 14 2 19 5 13 2 -7 2 -19 0 -25z m0 -105 c-3 -10 -5 -4 -5 12 0 17 2 24 5 18
2 -7 2 -21 0 -30z m3 -97 c0 -13 -8 -30 -17 -37 -16 -13 -17 -12 -4 3 7 10 11
29 9 43 -3 13 -1 22 3 19 5 -3 9 -16 9 -28z m-703 -312 c-3 -3 -12 -4 -19 -1
-8 3 -5 6 6 6 11 1 17 -2 13 -5z m6 -211 c-7 -2 -21 -2 -30 0 -10 3 -4 5 12 5
17 0 24 -2 18 -5z m-17 -111 c-10 -2 -22 0 -28 6 -6 6 0 7 19 4 21 -5 23 -7 9
-10z m19 -102 c-3 -5 -14 -10 -23 -9 -14 0 -13 2 3 9 27 11 27 11 20 0z m-30
-108 c-3 -3 -11 0 -18 7 -9 10 -8 11 6 5 10 -3 15 -9 12 -12z m21 -98 c17 5
23 3 19 -4 -10 -16 -51 -12 -66 8 -13 15 -12 16 3 3 11 -8 28 -11 44 -7z m122
-61 c-13 -16 -28 -16 -50 0 -14 11 -11 13 22 12 29 0 36 -3 28 -12z m-114 -44
c10 8 16 9 16 3 0 -6 -8 -13 -19 -17 -21 -6 -51 3 -51 16 0 5 9 4 19 -3 15 -9
23 -9 35 1z m5 -103 l26 15 -24 -20 c-29 -26 -33 -26 -57 1 l-19 22 24 -17
c23 -15 27 -15 50 -1z m701 -26 c0 -5 -4 -10 -10 -10 -5 0 -10 5 -10 10 0 6 5
10 10 10 6 0 10 -4 10 -10z m-230 -480 l0 -140 93 -1 c50 -1 80 -4 65 -6 -22
-3 -28 -10 -28 -28 0 -21 -5 -24 -65 -30 l-65 -7 0 -114 0 -114 113 -2 c61 -1
91 -3 65 -5 -39 -3 -48 -8 -48 -22 0 -28 -22 -33 -180 -38 -183 -6 -254 4
-258 34 -2 16 -12 23 -35 26 -18 2 32 5 111 5 l142 2 0 115 0 115 -82 1 c-111
2 -143 9 -143 34 0 12 -9 22 -25 26 -14 4 37 7 113 8 l137 1 0 140 0 140 45 0
45 0 0 -140z"/>
<path d="M13540 20496 c0 -30 35 -45 56 -24 22 22 7 48 -27 48 -24 0 -29 -4
-29 -24z"/>
<path d="M12919 20491 c-23 -18 -23 -20 -5 -27 22 -9 50 6 54 30 5 22 -20 20
-49 -3z"/>
<path d="M13640 20470 c-12 -7 -12 -13 -4 -27 15 -24 58 -24 62 1 6 30 -28 45
-58 26z"/>
<path d="M12841 20439 c-13 -11 -18 -19 -10 -19 21 0 42 16 38 28 -2 6 -14 2
-28 -9z"/>
<path d="M12918 20429 c-24 -13 -23 -45 1 -52 40 -10 73 42 35 57 -19 7 -15 8
-36 -5z"/>
<path d="M13550 20430 c-20 -12 -7 -45 19 -48 28 -4 44 9 36 30 -7 19 -38 29
-55 18z"/>
<path d="M13726 20421 c-16 -25 20 -56 50 -44 13 5 12 9 -7 29 -24 26 -35 29
-43 15z"/>
<path d="M12804 20375 c-9 -23 3 -45 24 -45 25 0 46 25 38 45 -7 19 -55 20
-62 0z"/>
<path d="M13010 20375 c-11 -13 -11 -19 3 -32 23 -23 69 -10 65 20 -4 27 -49
35 -68 12z"/>
<path d="M13434 20375 c-14 -35 41 -60 66 -30 10 12 10 18 0 30 -16 19 -59 19
-66 0z"/>
<path d="M13634 20375 c-8 -20 13 -45 37 -45 23 0 32 15 24 40 -8 24 -53 28
-61 5z"/>
<path d="M13810 20356 c0 -2 8 -10 18 -17 15 -13 16 -12 3 4 -13 16 -21 21
-21 13z"/>
<path d="M12721 20321 c-19 -27 -20 -32 -7 -37 37 -14 71 26 44 53 -14 13 -18
11 -37 -16z"/>
<path d="M12912 20338 c-19 -19 -14 -46 8 -53 27 -8 52 12 48 39 -3 24 -37 33
-56 14z"/>
<path d="M13547 20343 c-13 -12 -7 -51 9 -57 15 -6 54 9 54 20 0 30 -44 56
-63 37z"/>
<path d="M13731 20336 c-15 -18 -4 -44 21 -52 27 -8 42 9 34 40 -7 29 -36 35
-55 12z"/>
<path d="M12807 20294 c-13 -13 -7 -52 9 -58 25 -9 56 12 52 37 -3 22 -45 36
-61 21z"/>
<path d="M13009 20284 c-26 -31 25 -70 56 -44 20 16 19 46 -1 54 -25 10 -41 7
-55 -10z"/>
<path d="M13433 20284 c-9 -24 10 -49 37 -49 31 0 48 28 31 49 -17 21 -60 21
-68 0z"/>
<path d="M13635 20279 c-5 -13 -1 -27 8 -36 21 -21 57 -8 57 22 0 38 -54 49
-65 14z"/>
<path d="M12717 20249 c-21 -12 -23 -57 -3 -65 22 -8 56 14 56 36 0 25 -30 41
-53 29z"/>
<path d="M12916 20244 c-24 -23 -16 -48 17 -52 31 -4 47 20 30 46 -14 23 -29
25 -47 6z"/>
<path d="M13550 20245 c-19 -23 -8 -50 23 -53 35 -4 46 21 22 48 -22 24 -29
25 -45 5z"/>
<path d="M13735 20240 c-16 -17 -15 -20 5 -40 20 -20 24 -20 37 -7 17 17 10
52 -11 60 -8 3 -22 -3 -31 -13z"/>
<path d="M12817 20199 c-21 -12 -22 -55 -1 -63 22 -9 54 11 54 34 0 25 -30 41
-53 29z"/>
<path d="M12626 20160 c-21 -52 -20 -53 8 -35 28 19 38 39 30 60 -10 25 -21
17 -38 -25z"/>
<path d="M13006 20185 c-7 -20 10 -55 27 -55 24 0 49 26 46 46 -5 25 -64 33
-73 9z"/>
<path d="M13433 20184 c-14 -38 41 -71 66 -40 7 8 10 24 6 36 -8 25 -62 28
-72 4z"/>
<path d="M13637 20194 c-12 -12 -8 -32 9 -48 21 -22 56 -3 52 27 -3 22 -45 36
-61 21z"/>
<path d="M12707 20139 c-20 -27 -11 -49 18 -49 31 0 52 27 38 48 -15 25 -39
26 -56 1z"/>
<path d="M12910 20145 c-20 -25 -8 -50 25 -50 21 0 31 5 33 18 4 21 -14 47
-33 47 -7 0 -18 -7 -25 -15z"/>
<path d="M13550 20145 c-19 -22 -8 -50 21 -53 34 -4 46 24 23 49 -21 23 -28
23 -44 4z"/>
<path d="M13731 20142 c-12 -23 4 -52 30 -52 25 0 34 22 19 49 -13 26 -36 27
-49 3z"/>
<path d="M12623 20098 c-6 -7 -13 -20 -16 -28 -3 -9 -6 -6 -7 10 l-1 25 -10
-25 c-23 -57 -30 -199 -30 -604 0 -235 3 -431 6 -434 10 -10 25 22 18 38 -3 8
-6 22 -5 30 3 81 6 125 18 255 7 83 11 160 8 172 -7 26 16 83 33 83 21 0 35
37 23 61 -15 26 -42 21 -51 -11 -6 -23 -7 -23 -8 -3 -1 12 9 29 21 37 12 9 19
16 15 16 -4 0 2 9 13 20 24 24 24 30 6 55 -12 17 -16 17 -31 5 -11 -9 -15 -24
-13 -41 3 -16 1 -26 -4 -23 -17 11 -7 54 21 81 46 47 49 100 5 91 -14 -2 -19
-12 -19 -35 0 -17 -3 -29 -7 -26 -18 10 -6 48 27 84 39 44 41 51 20 69 -21 18
-43 6 -48 -27 l-4 -28 -2 27 c-1 18 8 33 27 48 33 26 43 49 30 73 -10 20 -22
22 -35 5z"/>
<path d="M12817 20099 c-19 -11 -23 -44 -6 -54 19 -12 59 4 59 25 0 25 -30 41
-53 29z"/>
<path d="M13016 20094 c-9 -8 -16 -19 -16 -24 0 -9 28 -40 36 -40 18 0 44 24
44 40 0 11 -9 24 -19 30 -25 13 -27 13 -45 -6z"/>
<path d="M13448 20099 c-42 -24 -1 -82 42 -59 25 13 26 38 3 56 -22 16 -23 16
-45 3z"/>
<path d="M13645 20096 c-12 -9 -15 -19 -10 -35 9 -30 59 -26 63 6 4 29 -28 47
-53 29z"/>
<path d="M12710 20045 c-18 -22 -8 -50 19 -50 32 0 49 28 32 49 -17 20 -35 20
-51 1z"/>
<path d="M12910 20045 c-20 -25 -8 -50 25 -50 24 0 31 5 33 24 6 37 -34 55
-58 26z"/>
<path d="M13544 20046 c-10 -27 1 -51 25 -54 37 -6 52 26 25 52 -19 20 -43 21
-50 2z"/>
<path d="M13734 20046 c-10 -26 1 -51 23 -54 14 -2 23 3 28 18 12 37 -38 71
-51 36z"/>
<path d="M12812 19998 c-15 -15 -16 -45 -1 -53 5 -4 21 -4 35 -1 40 11 28 66
-15 66 -4 0 -12 -5 -19 -12z"/>
<path d="M13010 19990 c-9 -16 -8 -25 1 -36 26 -32 84 0 62 34 -16 26 -50 27
-63 2z"/>
<path d="M13440 19995 c-20 -24 -8 -50 24 -50 36 0 56 26 37 49 -17 20 -45 21
-61 1z"/>
<path d="M13639 19994 c-17 -21 0 -49 32 -49 27 0 37 28 19 50 -16 19 -34 19
-51 -1z"/>
<path d="M12704 19946 c-10 -26 1 -51 22 -54 27 -4 47 21 39 48 -7 24 -53 28
-61 6z"/>
<path d="M12912 19948 c-15 -15 -16 -44 -1 -53 5 -4 21 -4 35 -1 20 5 25 12
22 34 -3 30 -35 41 -56 20z"/>
<path d="M13544 19946 c-10 -26 1 -51 22 -54 30 -4 48 21 34 47 -12 24 -48 28
-56 7z"/>
<path d="M13731 19946 c-16 -20 3 -56 29 -56 23 0 36 36 20 55 -16 19 -34 19
-49 1z"/>
<path d="M12804 19896 c-11 -29 1 -51 28 -54 22 -3 29 2 34 22 3 14 3 30 -1
35 -9 16 -55 13 -61 -3z"/>
<path d="M13010 19890 c-15 -28 4 -52 39 -48 22 2 26 8 26 33 0 25 -4 31 -27
33 -19 2 -30 -3 -38 -18z"/>
<path d="M13437 19903 c-13 -12 -7 -52 9 -61 38 -21 80 21 54 53 -13 15 -51
20 -63 8z"/>
<path d="M13635 19891 c-10 -31 5 -52 34 -49 19 2 27 10 29 27 6 39 -51 59
-63 22z"/>
<path d="M12707 19853 c-12 -11 -8 -50 7 -62 29 -24 65 14 46 50 -10 19 -40
26 -53 12z"/>
<path d="M12912 19848 c-30 -30 0 -78 37 -58 25 13 28 55 5 64 -22 8 -28 8
-42 -6z"/>
<path d="M13544 19834 c-8 -30 14 -58 38 -49 23 9 30 33 18 56 -16 28 -48 24
-56 -7z"/>
<path d="M13730 19841 c-12 -23 -5 -47 17 -55 33 -13 57 36 31 62 -18 18 -36
15 -48 -7z"/>
<path d="M12811 19796 c-21 -25 -10 -61 18 -61 31 0 50 28 35 53 -15 23 -38
26 -53 8z"/>
<path d="M13015 19794 c-19 -20 -16 -43 8 -58 34 -22 73 27 47 59 -16 19 -35
19 -55 -1z"/>
<path d="M13442 19798 c-22 -22 -14 -57 14 -64 38 -10 61 17 46 51 -12 27 -40
33 -60 13z"/>
<path d="M13642 19798 c-28 -28 -1 -75 38 -63 33 11 21 75 -15 75 -6 0 -16 -5
-23 -12z"/>
<path d="M13818 19785 c-13 -29 3 -55 33 -55 28 0 38 49 14 67 -26 18 -34 17
-47 -12z"/>
<path d="M12712 19748 c-17 -17 -15 -53 3 -68 13 -10 19 -10 35 5 25 22 25 37
2 58 -22 20 -25 20 -40 5z"/>
<path d="M12915 19744 c-19 -20 -16 -53 7 -67 34 -22 66 41 36 71 -16 16 -23
15 -43 -4z"/>
<path d="M13552 19748 c-17 -17 -15 -53 3 -68 13 -10 19 -10 35 5 25 22 25 37
2 58 -22 20 -25 20 -40 5z"/>
<path d="M13736 19738 c-13 -19 -14 -25 -2 -43 28 -42 71 -7 46 39 -16 32 -24
32 -44 4z"/>
<path d="M12804 19686 c-12 -31 0 -61 25 -61 31 0 50 28 35 53 -14 22 -52 28
-60 8z"/>
<path d="M13010 19681 c-25 -47 36 -83 64 -38 8 12 8 22 0 35 -16 25 -51 27
-64 3z"/>
<path d="M13442 19688 c-25 -25 -6 -68 30 -68 26 0 45 44 28 65 -15 18 -41 20
-58 3z"/>
<path d="M13640 19685 c-26 -31 13 -82 44 -56 21 17 21 57 0 65 -23 9 -30 8
-44 -9z"/>
<path d="M13814 19675 c-7 -27 10 -55 32 -55 23 0 40 46 24 65 -20 24 -49 18
-56 -10z"/>
<path d="M12712 19638 c-32 -32 0 -84 37 -61 22 14 25 38 6 57 -20 19 -27 20
-43 4z"/>
<path d="M12910 19635 c-7 -9 -10 -25 -6 -41 5 -20 12 -25 34 -22 34 4 44 45
16 65 -23 17 -29 16 -44 -2z"/>
<path d="M13552 19638 c-32 -32 0 -84 37 -61 22 14 25 38 6 57 -20 19 -27 20
-43 4z"/>
<path d="M13736 19631 c-14 -15 -15 -24 -6 -40 14 -26 47 -27 55 -1 6 20 -9
60 -24 60 -4 0 -16 -9 -25 -19z"/>
<path d="M12617 19583 c-11 -11 -8 -48 5 -61 17 -17 26 -15 38 8 18 34 -18 78
-43 53z"/>
<path d="M12807 19584 c-14 -14 -7 -53 12 -63 26 -14 54 8 49 40 -2 17 -10 25
-28 27 -14 2 -29 0 -33 -4z"/>
<path d="M13012 19578 c-17 -17 -15 -32 7 -52 15 -14 24 -15 40 -6 22 11 26
26 15 54 -7 19 -45 21 -62 4z"/>
<path d="M13437 19583 c-14 -13 -6 -53 12 -63 36 -19 68 11 56 51 -6 19 -54
27 -68 12z"/>
<path d="M13636 19572 c-11 -32 4 -53 33 -50 22 2 26 8 26 33 0 25 -4 31 -27
33 -19 2 -28 -2 -32 -16z"/>
<path d="M13816 19574 c-9 -23 -8 -31 9 -48 28 -27 62 5 50 45 -8 23 -50 25
-59 3z"/>
<path d="M12707 19533 c-21 -20 1 -73 30 -73 22 0 38 46 23 65 -13 15 -42 20
-53 8z"/>
<path d="M12912 19528 c-28 -28 -1 -75 38 -63 33 11 21 75 -15 75 -6 0 -16 -5
-23 -12z"/>
<path d="M13552 19528 c-17 -17 -15 -55 3 -62 35 -13 63 21 45 55 -12 22 -30
25 -48 7z"/>
<path d="M13730 19521 c-13 -26 4 -64 27 -59 25 5 40 35 27 56 -16 25 -41 26
-54 3z"/>
<path d="M12620 19475 c-6 -8 -10 -24 -8 -37 4 -29 43 -38 50 -11 10 43 -19
76 -42 48z"/>
<path d="M12810 19476 c-16 -21 -9 -60 13 -64 41 -8 64 48 28 68 -25 13 -26
13 -41 -4z"/>
<path d="M13016 19474 c-29 -29 -12 -64 31 -64 31 0 44 47 18 67 -24 17 -30
16 -49 -3z"/>
<path d="M13440 19475 c-19 -23 -4 -65 23 -65 43 0 60 35 31 64 -19 20 -38 20
-54 1z"/>
<path d="M13646 19475 c-27 -27 -14 -70 19 -63 27 5 42 34 29 55 -15 24 -29
26 -48 8z"/>
<path d="M13826 19474 c-18 -17 -19 -24 -10 -48 8 -20 38 -21 54 -1 10 12 10
21 2 40 -13 29 -24 31 -46 9z"/>
<path d="M12716 19427 c-27 -20 -18 -62 13 -62 37 0 51 30 25 55 -17 17 -22
18 -38 7z"/>
<path d="M12915 19424 c-9 -9 -15 -26 -13 -38 2 -16 10 -21 33 -21 25 0 31 4
33 27 4 36 -29 56 -53 32z"/>
<path d="M13734 19415 c-13 -20 -14 -28 -4 -40 16 -20 49 -19 57 1 7 18 -12
64 -27 64 -5 0 -17 -11 -26 -25z"/>
<path d="M13544 19416 c-10 -26 1 -51 22 -54 30 -4 48 21 34 47 -12 24 -48 28
-56 7z"/>
<path d="M12617 19373 c-13 -13 -7 -61 9 -67 22 -8 22 -8 34 14 18 34 -18 78
-43 53z"/>
<path d="M12807 19373 c-4 -3 -7 -19 -7 -34 0 -19 6 -30 20 -34 39 -12 66 35
38 63 -13 13 -41 16 -51 5z"/>
<path d="M13010 19365 c-10 -12 -10 -21 -2 -40 17 -38 72 -31 72 9 0 42 -45
62 -70 31z"/>
<path d="M13442 19368 c-25 -25 -6 -68 30 -68 26 0 45 44 28 65 -15 18 -41 20
-58 3z"/>
<path d="M13640 19365 c-10 -12 -10 -21 -1 -41 13 -28 38 -29 55 -1 22 35 -27
74 -54 42z"/>
<path d="M13820 19365 c-28 -34 16 -84 47 -53 14 14 15 22 5 43 -13 28 -33 32
-52 10z"/>
<path d="M12706 19314 c-17 -45 16 -81 49 -54 20 17 19 33 -3 53 -23 21 -38
21 -46 1z"/>
<path d="M12912 19318 c-28 -28 -1 -75 38 -63 33 11 21 75 -15 75 -6 0 -16 -5
-23 -12z"/>
<path d="M13550 19316 c-18 -22 -9 -60 16 -64 31 -4 50 23 36 53 -13 28 -34
32 -52 11z"/>
<path d="M13736 19311 c-14 -16 -15 -23 -6 -41 13 -24 38 -23 54 3 8 12 8 22
0 34 -15 25 -28 26 -48 4z"/>
<path d="M12617 19263 c-11 -11 -8 -48 5 -61 17 -17 26 -15 38 8 18 34 -18 78
-43 53z"/>
<path d="M12807 19263 c-14 -13 -7 -53 11 -62 37 -20 70 27 40 57 -13 13 -41
16 -51 5z"/>
<path d="M13005 19249 c-11 -32 25 -65 54 -50 37 20 24 71 -19 71 -20 0 -31
-6 -35 -21z"/>
<path d="M13436 19254 c-10 -27 -7 -43 13 -54 36 -19 68 11 56 51 -8 24 -60
26 -69 3z"/>
<path d="M13642 19258 c-30 -30 0 -78 38 -58 15 8 20 19 18 38 -3 30 -35 41
-56 20z"/>
<path d="M13822 19258 c-16 -16 -15 -33 3 -52 28 -27 62 5 50 45 -7 21 -35 25
-53 7z"/>
<path d="M12713 19213 c-18 -7 -16 -48 3 -64 33 -27 70 24 39 55 -17 17 -22
18 -42 9z"/>
<path d="M12912 19208 c-28 -28 -1 -75 38 -63 33 11 21 75 -15 75 -6 0 -16 -5
-23 -12z"/>
<path d="M13552 19208 c-15 -15 -16 -54 -2 -63 15 -9 47 3 54 21 7 19 -10 54
-27 54 -7 0 -18 -5 -25 -12z"/>
<path d="M13736 19201 c-14 -16 -15 -23 -6 -41 13 -24 38 -23 54 3 8 12 8 22
0 34 -15 25 -28 26 -48 4z"/>
<path d="M12621 19157 c-17 -17 -13 -57 5 -64 10 -4 22 1 29 11 24 32 -7 80
-34 53z"/>
<path d="M13016 19154 c-19 -18 -19 -20 -6 -45 6 -11 21 -19 35 -19 33 0 47
47 20 67 -24 17 -30 16 -49 -3z"/>
<path d="M13448 19159 c-28 -16 -23 -57 7 -65 45 -11 71 29 39 60 -18 19 -23
19 -46 5z"/>
<path d="M13825 19154 c-17 -17 -18 -25 -9 -48 14 -37 71 -5 59 33 -8 26 -31
33 -50 15z"/>
<path d="M12804 19146 c-12 -31 0 -51 31 -51 27 0 30 3 30 30 0 25 -4 30 -28
33 -17 2 -29 -2 -33 -12z"/>
<path d="M13635 19141 c-9 -28 5 -52 28 -49 25 4 42 30 34 52 -9 22 -54 21
-62 -3z"/>
<path d="M12704 19096 c-11 -28 1 -51 28 -54 31 -4 48 29 28 53 -16 19 -49 19
-56 1z"/>
<path d="M12904 19085 c-4 -15 -3 -30 2 -35 31 -30 80 2 58 38 -6 9 -21 18
-32 20 -16 2 -23 -3 -28 -23z"/>
<path d="M13547 19103 c-12 -11 -8 -61 6 -66 31 -11 67 34 46 59 -12 15 -41
19 -52 7z"/>
<path d="M13729 19089 c-9 -18 -8 -25 8 -40 16 -17 21 -17 37 -6 14 10 17 21
12 40 -8 33 -40 36 -57 6z"/>
<path d="M12617 19053 c-4 -3 -7 -19 -7 -34 0 -34 29 -48 47 -23 17 23 16 29
-3 48 -17 17 -27 20 -37 9z"/>
<path d="M12813 19053 c-18 -7 -16 -48 3 -64 11 -9 20 -10 32 -2 24 15 27 45
6 60 -19 14 -22 14 -41 6z"/>
<path d="M13010 19045 c-15 -19 -4 -52 21 -60 38 -12 65 35 37 63 -16 16 -43
15 -58 -3z"/>
<path d="M13442 19048 c-25 -25 -6 -68 30 -68 26 0 45 44 28 65 -15 18 -41 20
-58 3z"/>
<path d="M13645 19044 c-19 -19 -16 -43 7 -57 33 -21 65 32 36 61 -16 16 -23
15 -43 -4z"/>
<path d="M13826 19044 c-9 -8 -16 -21 -16 -28 0 -16 21 -36 37 -36 18 0 35 37
28 60 -8 24 -28 26 -49 4z"/>
<path d="M12710 18995 c-6 -7 -10 -24 -8 -37 4 -32 53 -38 63 -9 7 24 1 37
-25 51 -13 7 -21 6 -30 -5z"/>
<path d="M12915 18996 c-20 -14 -17 -44 6 -59 24 -15 49 -1 49 27 0 32 -30 50
-55 32z"/>
<path d="M13555 18996 c-24 -17 -16 -60 12 -64 38 -6 54 58 18 72 -7 2 -21 -1
-30 -8z"/>
<path d="M13734 18984 c-16 -24 -16 -26 0 -42 30 -31 74 20 46 53 -17 21 -27
19 -46 -11z"/>
<path d="M12560 18968 c0 -40 14 -51 23 -18 3 10 -1 27 -9 37 -12 16 -13 14
-14 -19z"/>
<path d="M12614 18936 c-10 -26 1 -51 22 -54 26 -4 38 22 24 49 -13 22 -38 25
-46 5z"/>
<path d="M12807 18943 c-14 -13 -7 -53 11 -62 37 -20 70 27 40 57 -13 13 -41
16 -51 5z"/>
<path d="M13010 18935 c-15 -18 -5 -51 19 -58 25 -6 51 10 51 31 0 38 -46 56
-70 27z"/>
<path d="M13440 18935 c-20 -24 -3 -55 30 -55 20 0 31 6 35 20 8 25 -10 50
-35 50 -10 0 -23 -7 -30 -15z"/>
<path d="M13641 18936 c-21 -26 -9 -51 24 -51 27 0 30 3 30 30 0 23 -5 31 -21
33 -11 2 -26 -4 -33 -12z"/>
<path d="M13820 18935 c-19 -22 -8 -50 21 -53 29 -3 44 18 34 49 -7 23 -38 25
-55 4z"/>
<path d="M12707 18893 c-12 -12 -7 -50 8 -63 17 -14 43 -7 51 15 11 28 -39 68
-59 48z"/>
<path d="M12910 18885 c-26 -31 13 -82 44 -56 19 16 21 42 4 59 -16 16 -33 15
-48 -3z"/>
<path d="M13552 18888 c-26 -26 -2 -75 31 -62 22 8 29 32 17 55 -12 22 -30 25
-48 7z"/>
<path d="M13737 18882 c-23 -25 -21 -39 4 -53 30 -15 54 9 45 45 -8 30 -26 33
-49 8z"/>
<path d="M12562 18860 c2 -31 13 -40 21 -17 5 17 -3 47 -14 47 -5 0 -8 -13 -7
-30z"/>
<path d="M12612 18808 c2 -25 8 -34 24 -36 24 -3 35 16 27 47 -4 14 -13 21
-30 21 -21 0 -24 -4 -21 -32z"/>
<path d="M12805 18830 c-4 -6 -4 -22 -1 -36 7 -28 53 -34 63 -8 13 34 -44 74
-62 44z"/>
<path d="M13006 18824 c-9 -24 12 -54 38 -54 26 0 40 23 31 51 -8 24 -60 26
-69 3z"/>
<path d="M13433 18824 c-9 -24 10 -49 37 -49 27 0 46 25 37 49 -4 10 -18 16
-37 16 -19 0 -33 -6 -37 -16z"/>
<path d="M13641 18826 c-17 -20 -5 -56 18 -56 42 0 55 62 15 68 -11 2 -26 -4
-33 -12z"/>
<path d="M13820 18821 c-14 -27 -2 -51 26 -51 17 0 25 7 30 24 3 14 3 30 -1
35 -10 18 -44 12 -55 -8z"/>
<path d="M12707 18783 c-12 -11 -7 -50 7 -62 16 -14 56 1 56 20 0 35 -42 63
-63 42z"/>
<path d="M12905 18771 c-8 -26 12 -63 32 -59 25 5 40 35 27 56 -16 25 -51 27
-59 3z"/>
<path d="M13553 18783 c-18 -7 -16 -48 3 -63 13 -11 19 -10 37 8 17 18 19 26
11 40 -12 18 -31 24 -51 15z"/>
<path d="M13732 18770 c-15 -25 -15 -25 4 -44 21 -21 31 -20 44 4 24 46 -21
83 -48 40z"/>
<path d="M12571 18750 c0 -29 1 -32 10 -17 7 11 7 23 0 35 -9 14 -10 11 -10
-18z"/>
<path d="M12614 18725 c-9 -23 5 -65 21 -65 25 0 36 34 19 58 -18 26 -32 28
-40 7z"/>
<path d="M12810 18725 c-26 -31 13 -82 44 -56 22 18 20 48 -3 61 -25 13 -26
13 -41 -5z"/>
<path d="M13010 18725 c-17 -21 2 -65 28 -65 41 0 57 51 23 70 -27 14 -36 13
-51 -5z"/>
<path d="M13448 18729 c-33 -19 -15 -69 24 -69 15 0 38 27 38 44 0 7 -31 36
-38 36 -4 0 -15 -5 -24 -11z"/>
<path d="M13645 18724 c-19 -19 -16 -43 7 -57 20 -13 48 6 48 34 0 28 -35 43
-55 23z"/>
<path d="M13825 18724 c-19 -19 -16 -43 7 -57 33 -21 65 32 36 61 -16 16 -23
15 -43 -4z"/>
<path d="M12707 18674 c-15 -16 -7 -53 14 -59 30 -10 58 19 43 43 -12 18 -45
28 -57 16z"/>
<path d="M12903 18664 c-9 -24 10 -49 38 -49 18 0 25 6 27 24 6 38 -52 59 -65
25z"/>
<path d="M13544 18666 c-10 -26 1 -51 23 -54 28 -4 50 32 32 54 -15 18 -48 18
-55 0z"/>
<path d="M13730 18659 c-10 -17 -9 -24 4 -37 21 -22 51 -4 51 29 0 33 -39 39
-55 8z"/>
<path d="M12560 18640 c0 -32 14 -40 24 -15 6 18 -2 45 -15 45 -5 0 -9 -13 -9
-30z"/>
<path d="M12617 18623 c-11 -11 -8 -48 5 -61 17 -17 26 -15 38 8 18 34 -18 78
-43 53z"/>
<path d="M12807 18623 c-14 -13 -7 -53 11 -62 37 -20 70 27 40 57 -13 13 -41
16 -51 5z"/>
<path d="M13011 18616 c-14 -16 -5 -43 18 -55 19 -11 51 9 51 31 0 34 -47 51
-69 24z"/>
<path d="M13442 18618 c-19 -19 -14 -46 9 -59 18 -9 25 -7 43 10 16 17 18 25
10 39 -14 21 -45 27 -62 10z"/>
<path d="M13642 18618 c-30 -30 3 -77 40 -57 22 12 24 55 2 63 -22 8 -28 8
-42 -6z"/>
<path d="M13818 18604 c-10 -22 -10 -28 6 -39 10 -8 24 -11 32 -8 16 6 29 47
19 62 -12 20 -45 11 -57 -15z"/>
<path d="M12713 18573 c-18 -6 -16 -48 1 -62 11 -9 20 -10 35 -1 26 13 27 32
3 53 -20 18 -20 18 -39 10z"/>
<path d="M12910 18565 c-26 -31 13 -82 44 -56 22 18 20 48 -3 61 -25 13 -26
13 -41 -5z"/>
<path d="M13557 18568 c-21 -11 -22 -54 -2 -62 31 -12 61 17 49 48 -8 20 -27
26 -47 14z"/>
<path d="M13733 18554 c-16 -25 -16 -27 2 -40 26 -19 34 -18 47 11 8 19 8 28
-2 40 -18 21 -27 19 -47 -11z"/>
<path d="M12570 18535 c1 -26 2 -28 11 -12 8 14 8 22 0 30 -8 8 -11 3 -11 -18z"/>
<path d="M12612 18488 c2 -25 8 -34 24 -36 13 -2 24 4 28 13 9 24 -11 55 -35
55 -17 0 -20 -5 -17 -32z"/>
<path d="M12807 18513 c-12 -11 -8 -40 8 -53 19 -15 55 -3 55 19 0 31 -43 55
-63 34z"/>
<path d="M13011 18506 c-16 -19 2 -56 28 -56 28 0 47 28 34 48 -13 22 -47 27
-62 8z"/>
<path d="M13439 18504 c-17 -21 0 -49 31 -49 31 0 48 28 31 49 -8 9 -21 16
-31 16 -10 0 -23 -7 -31 -16z"/>
<path d="M13641 18506 c-15 -18 -8 -44 14 -52 21 -9 47 15 43 40 -4 26 -40 33
-57 12z"/>
<path d="M13820 18505 c-16 -19 -3 -55 19 -55 26 0 44 25 36 50 -7 23 -37 27
-55 5z"/>
<path d="M12704 18456 c-11 -29 1 -51 29 -54 32 -4 44 16 27 47 -12 24 -48 28
-56 7z"/>
<path d="M12910 18455 c-20 -25 -8 -50 25 -50 21 0 31 5 33 18 4 21 -14 47
-33 47 -7 0 -18 -7 -25 -15z"/>
<path d="M13550 18455 c-17 -21 -8 -50 17 -53 28 -4 50 32 32 54 -15 18 -33
18 -49 -1z"/>
<path d="M13733 18450 c-17 -26 -6 -50 23 -50 17 0 25 7 30 24 3 14 3 30 -1
35 -10 18 -39 13 -52 -9z"/>
<path d="M12560 18430 c0 -16 4 -30 9 -30 12 0 19 21 13 43 -7 28 -22 20 -22
-13z"/>
<path d="M12610 18386 c0 -13 7 -29 16 -36 12 -11 18 -11 30 2 13 12 14 20 5
37 -16 30 -51 28 -51 -3z"/>
<path d="M12800 18386 c0 -32 26 -53 48 -39 38 24 22 63 -25 63 -18 0 -23 -6
-23 -24z"/>
<path d="M13004 18399 c-11 -18 18 -60 39 -57 25 4 42 30 34 52 -7 18 -62 22
-73 5z"/>
<path d="M13437 18403 c-12 -11 -8 -40 8 -53 28 -24 72 9 59 45 -6 15 -55 21
-67 8z"/>
<path d="M13641 18396 c-15 -18 -8 -44 14 -52 21 -9 47 15 43 40 -4 26 -40 33
-57 12z"/>
<path d="M13819 18394 c-15 -18 -2 -47 24 -52 18 -4 41 33 33 54 -7 19 -40 18
-57 -2z"/>
<path d="M12707 18353 c-15 -15 -6 -52 14 -58 31 -10 55 16 40 44 -11 20 -41
28 -54 14z"/>
<path d="M12903 18346 c-9 -11 -8 -19 4 -35 18 -26 56 -25 61 2 7 38 -39 62
-65 33z"/>
<path d="M13544 18346 c-11 -28 1 -51 25 -51 32 0 49 28 32 49 -17 20 -50 21
-57 2z"/>
<path d="M13732 18339 c-16 -24 -1 -49 29 -49 20 0 36 40 24 59 -10 18 -39 12
-53 -10z"/>
<path d="M12560 18318 c0 -29 2 -31 15 -17 9 9 13 23 9 32 -10 28 -24 19 -24
-15z"/>
<path d="M12617 18303 c-14 -14 -6 -53 13 -63 15 -8 21 -7 28 7 17 33 -18 80
-41 56z"/>
<path d="M12813 18303 c-19 -7 -16 -51 4 -62 23 -12 53 4 53 29 0 16 -29 42
-42 39 -2 0 -9 -3 -15 -6z"/>
<path d="M13010 18295 c-15 -18 -5 -51 19 -58 44 -11 71 42 32 63 -26 14 -36
13 -51 -5z"/>
<path d="M13446 18297 c-13 -9 -16 -20 -12 -34 9 -29 35 -37 57 -17 24 22 24
41 0 54 -25 13 -24 13 -45 -3z"/>
<path d="M13647 18299 c-23 -13 -22 -46 2 -59 22 -11 51 9 51 35 0 21 -32 35
-53 24z"/>
<path d="M13826 18294 c-21 -21 -20 -41 3 -54 15 -7 23 -6 35 6 21 20 20 50 0
58 -21 8 -20 8 -38 -10z"/>
<path d="M12423 18253 c9 -2 25 -2 35 0 9 3 1 5 -18 5 -19 0 -27 -2 -17 -5z"/>
<path d="M14100 18253 c0 -5 15 -8 34 -8 19 0 32 3 29 8 -2 4 -17 7 -34 7 -16
0 -29 -3 -29 -7z"/>
<path d="M12903 18235 c-7 -20 -6 -21 35 -28 27 -6 32 -3 32 12 0 31 -56 44
-67 16z"/>
<path d="M13730 18231 c-10 -19 -8 -21 25 -21 29 0 36 3 33 18 -5 25 -44 27
-58 3z"/>
<path d="M12284 18188 c-10 -20 -17 -62 -19 -112 -1 -45 -1 -65 1 -46 2 19 6
53 9 75 l5 40 55 -3 c34 -3 55 0 55 7 0 5 -21 12 -47 14 l-48 3 50 2 c36 2 46
5 35 12 -10 6 -11 10 -2 10 6 0 12 7 12 15 0 11 -12 15 -45 15 -40 0 -46 -3
-61 -32z m74 15 c-10 -2 -28 -2 -40 0 -13 2 -5 4 17 4 22 1 32 -1 23 -4z"/>
<path d="M14188 18214 c-3 -3 -4 -14 -1 -25 4 -15 15 -19 52 -21 l46 -1 -45
-4 c-69 -6 -74 -23 -7 -23 39 0 57 4 58 13 0 6 4 3 9 -8 12 -28 12 -2 0 29 -7
20 -17 26 -42 27 l-33 1 30 8 c27 7 26 8 -16 9 -25 0 -48 -2 -51 -5z"/>
<path d="M12290 18120 c0 -5 23 -10 50 -10 28 0 50 5 50 10 0 6 -22 10 -50 10
-27 0 -50 -4 -50 -10z"/>
<path d="M14190 18109 c0 -11 -5 -29 -11 -41 -8 -14 -8 -27 0 -46 10 -25 16
-27 56 -24 l45 4 0 47 0 48 -40 -3 c-22 -1 -40 2 -40 7 0 5 18 9 40 9 22 0 40
5 40 10 0 6 -20 10 -45 10 -39 0 -45 -3 -45 -21z"/>
<path d="M12300 18048 l0 -48 41 0 c22 0 47 6 55 14 16 17 19 56 4 56 -5 0
-10 6 -10 13 0 10 -14 14 -45 13 l-45 0 0 -48z"/>
<path d="M14313 18050 c0 -30 2 -43 4 -27 2 15 2 39 0 55 -2 15 -4 2 -4 -28z"/>
<path d="M12267 17960 c3 -11 7 -20 9 -20 2 0 4 9 4 20 0 11 -4 20 -9 20 -5 0
-7 -9 -4 -20z"/>
<path d="M12295 17970 c3 -5 26 -10 51 -10 24 0 44 5 44 10 0 6 -23 10 -51 10
-31 0 -48 -4 -44 -10z"/>
<path d="M14190 17970 c0 -5 20 -10 45 -10 25 0 45 5 45 10 0 6 -20 10 -45 10
-25 0 -45 -4 -45 -10z"/>
<path d="M12285 17933 c-9 -39 14 -63 62 -63 32 0 43 4 43 15 0 11 -13 15 -47
17 l-48 1 50 7 50 7 -50 3 c-49 3 -49 3 -10 7 60 6 64 20 6 24 -45 4 -51 2
-56 -18z"/>
<path d="M14186 17941 c5 -6 29 -11 54 -14 l45 -4 -50 -3 -50 -3 50 -7 50 -7
-47 -1 c-35 -2 -48 -6 -48 -17 0 -11 12 -15 44 -15 39 0 45 3 53 28 16 44 7
52 -55 52 -35 0 -52 -4 -46 -9z"/>
<path d="M14098 17510 c-2 -206 -7 -383 -12 -392 -5 -12 -4 -18 3 -18 6 0 11
11 11 25 0 29 24 43 44 26 23 -19 26 31 26 393 l0 341 -35 0 -34 0 -3 -375z"/>
<path d="M12411 17503 c0 -208 3 -371 7 -363 8 17 30 19 51 6 12 -8 13 0 8 45
-4 30 -7 197 -7 372 l0 317 -30 0 -30 0 1 -377z"/>
<path d="M12560 17421 l0 -121 145 0 145 0 0 115 0 115 -84 0 c-45 0 -111 3
-145 6 l-61 7 0 -122z"/>
<path d="M12481 17104 c0 -11 3 -14 6 -6 3 7 2 16 -1 19 -3 4 -6 -2 -5 -13z"/>
<path d="M12421 17074 c0 -11 3 -14 6 -6 3 7 2 16 -1 19 -3 4 -6 -2 -5 -13z"/>
<path d="M14071 17054 c0 -11 3 -14 6 -6 3 7 2 16 -1 19 -3 4 -6 -2 -5 -13z"/>
<path d="M12496 17047 c3 -10 9 -15 12 -12 3 3 0 11 -7 18 -10 9 -11 8 -5 -6z"/>
<path d="M14061 17014 c0 -11 3 -14 6 -6 3 7 2 16 -1 19 -3 4 -6 -2 -5 -13z"/>
<path d="M13909 16643 c-13 -16 -12 -17 4 -4 9 7 17 15 17 17 0 8 -8 3 -21
-13z"/>
<path d="M12847 16569 c7 -7 15 -10 18 -7 3 3 -2 9 -12 12 -14 6 -15 5 -6 -5z"/>
<path d="M13809 16553 c-13 -16 -12 -17 4 -4 16 13 21 21 13 21 -2 0 -10 -8
-17 -17z"/>
<path d="M12790 16536 c0 -2 8 -10 18 -17 15 -13 16 -12 3 4 -13 16 -21 21
-21 13z"/>
<path d="M13634 16525 c-10 -8 -14 -14 -9 -14 6 0 19 6 29 14 11 8 15 15 10
15 -6 0 -19 -7 -30 -15z"/>
<path d="M12930 16525 c0 -11 97 -47 178 -66 151 -35 382 -17 480 38 l27 15
-27 -6 c-16 -4 -28 -2 -28 3 0 4 -34 1 -75 -9 -100 -23 -261 -25 -372 -4 -48
9 -96 20 -105 25 -11 6 -18 5 -21 -4 -3 -9 -9 -9 -26 1 -23 13 -31 15 -31 7z"/>
<path d="M12866 16485 c10 -8 23 -15 28 -15 6 0 1 7 -10 15 -10 8 -23 15 -28
15 -6 0 -1 -7 10 -15z"/>
<path d="M13615 16450 c-36 -16 -69 -19 -299 -19 -229 -1 -257 -3 -246 -16 10
-12 40 -15 144 -16 72 0 149 -4 171 -9 26 -5 -28 -7 -155 -6 -190 1 -195 2
-198 22 -3 20 -10 24 -92 50 -8 3 -3 -2 13 -11 19 -11 27 -24 27 -42 0 -15 10
-37 23 -51 20 -21 20 -25 6 -35 -9 -7 -26 -28 -38 -47 -26 -44 -28 -135 -6
-377 20 -222 22 -233 58 -338 l32 -90 3 -657 3 -658 24 0 25 0 0 620 c0 659
-2 632 44 614 14 -6 16 -69 16 -620 l0 -614 155 0 155 0 0 614 c0 665 -3 626
51 626 19 0 19 -15 19 -620 l0 -620 25 0 25 0 0 654 0 655 30 89 c16 49 34
123 40 163 5 41 12 92 15 114 3 22 8 127 12 233 l6 192 -32 0 c-30 0 -32 -2
-27 -27 9 -40 -22 -83 -82 -116 -59 -32 -67 -28 -20 11 39 33 71 102 62 137
-5 21 -3 24 11 19 14 -6 17 -1 15 32 -7 102 -1 141 23 152 12 6 18 11 12 11
-5 0 -28 -9 -50 -19z m-475 -164 c0 -6 11 -28 25 -49 14 -20 22 -37 17 -37
-18 0 -62 58 -69 90 -6 32 -5 34 10 21 9 -7 17 -19 17 -25z m395 -13 c-15 -38
-48 -73 -68 -73 -5 0 -3 8 5 18 9 9 21 34 28 55 8 26 17 37 31 37 18 0 19 -2
4 -37z m-431 -150 l46 -42 -39 16 c-61 24 -101 66 -101 105 0 19 8 45 18 58
l17 25 6 -60 c6 -55 10 -63 53 -102z m-28 -68 c7 0 13 -45 6 -45 -17 0 -72 57
-72 74 0 14 5 13 33 -6 17 -13 33 -23 33 -23z m574 35 c0 -13 -60 -80 -71 -80
-24 0 -6 42 29 64 44 29 42 29 42 16z m-548 -182 c4 -18 14 -85 23 -148 8 -63
29 -158 45 -210 39 -123 39 -124 -7 -115 -21 3 -43 12 -49 18 -33 36 -85 271
-99 451 l-7 88 44 -26 c32 -19 45 -34 50 -58z m534 -25 c-9 -132 -27 -230 -64
-348 -30 -94 -37 -101 -99 -104 -30 -1 -29 11 6 128 17 53 37 150 46 216 22
162 21 161 68 189 23 14 44 25 46 26 2 0 0 -48 -3 -107z"/>
</g>
</svg>
